<svg width="637" height="637" viewBox="0 0 637 637" fill="none" xmlns="http://www.w3.org/2000/svg">
<path d="M533.911 461.291L481.591 482.33L480.299 482.884C477.623 483.807 474.671 484.452 471.625 484.452H421.428C416.998 484.452 412.754 483.53 408.786 481.869C402.234 479.1 396.606 474.302 392.915 467.935L390.885 464.429L319.371 340.595L337.088 310.144C344.009 298.149 361.356 298.149 368.277 310.144L446.896 446.343C452.063 455.293 461.014 461.199 471.072 462.583H471.164C472.548 462.768 474.025 462.86 475.501 462.86H525.699C528.559 462.768 531.42 462.306 533.911 461.291Z" fill="#1EAA82"/>
<path d="M322.504 157.698C314.568 161.205 307.463 167.295 302.572 175.692L301.004 178.368L207.344 340.773L158.346 425.666C157.239 427.511 156.5 429.449 155.947 431.387V431.479C152.163 444.767 160.468 458.885 173.94 462.115H174.033C175.878 462.576 177.816 462.761 179.846 462.761H207.529H229.952C233.643 462.761 237.241 462.115 240.563 461.007L188.612 481.862C184.644 483.523 180.4 484.445 175.97 484.445H125.773C117.652 484.445 110.824 480.662 106.395 475.126C106.395 475.126 106.395 475.126 106.395 475.033C100.489 467.559 98.9205 456.947 104.273 447.535L248.683 197.284C253.759 188.61 261.048 182.613 269.169 179.198L270.46 178.645L322.504 157.698Z" fill="#1EAA82"/>
<path d="M521.43 482.962C518.754 483.977 515.986 484.438 513.033 484.438H462.835C461.359 484.438 459.975 484.346 458.591 484.161H458.498C448.44 482.869 439.49 476.872 434.322 468.013L355.704 331.815C348.783 319.911 331.527 319.819 324.607 331.722L272.287 422.337L245.896 467.921C242.02 474.749 235.838 479.824 228.64 482.408L227.994 482.593C224.58 483.792 220.981 484.346 217.383 484.346H194.96H167.185C165.155 484.346 163.217 484.161 161.372 483.7H161.279C158.142 482.962 155.281 481.578 152.698 479.732C144.577 473.919 140.425 463.215 143.286 453.065V452.972C143.839 451.034 144.577 449.097 145.685 447.251L194.683 362.358L300.984 178.268L302.553 175.592C307.444 167.103 314.456 161.197 322.392 157.691C327.929 155.2 334.019 154 340.109 154C354.689 154 369.268 161.197 377.573 175.685L416.513 243.046L534.441 447.343C542.469 461.185 535.364 477.979 521.43 482.962Z" fill="#42FFCA"/>
<path d="M521.431 482.974C518.755 483.989 515.987 484.451 513.034 484.451H462.836C461.36 484.451 459.976 484.358 458.592 484.174H458.499C448.441 482.882 439.491 476.884 434.323 468.026L355.705 331.827C353.582 328.228 350.537 325.645 347.123 324.261C339.28 320.939 329.406 323.43 324.516 331.735L375.359 243.704C384.495 228.017 407.01 227.741 416.422 243.058L421.036 250.994C421.036 250.994 421.128 251.086 421.128 251.179L487.197 365.692L534.35 447.264C542.47 461.197 535.365 477.991 521.431 482.974Z" fill="#37CFA4"/>
<path opacity="0.05" d="M421.128 250.983C413.93 238.895 396.398 238.987 389.293 251.167L347.123 324.157C339.28 320.835 329.406 323.327 324.516 331.631L375.359 243.601C384.495 227.914 407.01 227.637 416.422 242.955L421.128 250.983Z" fill="#00002D"/>
<path opacity="0.15" d="M340.109 154L152.698 479.732C144.577 473.919 140.425 463.215 143.286 453.065V452.972C143.839 451.034 144.577 449.097 145.685 447.251L194.683 362.358L300.984 178.268L302.553 175.592C307.444 167.103 314.456 161.197 322.392 157.691C328.021 155.2 334.111 154 340.109 154Z" fill="white"/>
</svg>
